<?xml version="1.0" standalone="no"?>
 <!DOCTYPE svg PUBLIC "-//W3C//DTD SVG 1.1//EN" 
 "http://www.w3.org/Graphics/SVG/1.1/DTD/svg11.dtd"> 
<svg xmlns="http://www.w3.org/2000/svg" version="1.1" 
    width="29.7002cm" height="21.0007cm" viewBox="0 0 116930 82680 ">
<title>SVG Picture created as ControlPCB-drl_map.svg date 2016/12/19 12:56:41 </title>
  <desc>Picture generated by PCBNEW </desc>
<g style="fill:#000000; fill-opacity:1;stroke:#000000; stroke-opacity:1;
stroke-linecap:round; stroke-linejoin:round; "
 transform="translate(0 0) scale(1 1)">
</g>
<g style="fill:#000000; fill-opacity:0.0; 
stroke:#000000; stroke-width:-0.000393701; stroke-opacity:1; 
stroke-linecap:round; stroke-linejoin:round;">
</g>
<g style="fill:#000000; fill-opacity:0.0; 
stroke:#000000; stroke-width:59.0551; stroke-opacity:1; 
stroke-linecap:round; stroke-linejoin:round;">
<path d="M80000 21000
L79900 21000
" />
<path d="M79900 21000
L77900 21000
" />
<path d="M81000 22000
L81000 24200
" />
<path d="M80000 21000
L81000 22000
" />
<path d="M80100 56600
L79800 56600
" />
<path d="M81000 55700
L81000 55500
" />
<path d="M80100 56600
L81000 55700
" />
<path d="M33900 55600
L33900 55400
" />
<path d="M34900 56600
L35200 56600
" />
<path d="M33900 55600
L34900 56600
" />
<path d="M33900 55400
L33900 51800
" />
<path d="M39400 56600
L35100 56600
" />
<path d="M35400 21000
L34900 21000
" />
<path d="M34900 21000
L33900 22000
" />
<path d="M77900 21000
L35400 21000
" />
<path d="M81000 55500
L81000 24100
" />
<path d="M39400 56600
L79900 56600
" />
<path d="M33900 22000
L33900 51800
" />
</g>
<g style="fill:#000000; fill-opacity:0.0; 
stroke:#000000; stroke-width:78.7402; stroke-opacity:1; 
stroke-linecap:round; stroke-linejoin:round;">
<path d="M36842 24842
L37157 25157
" />
<path d="M37157 24842
L36842 25157
" />
<path d="M36842 27242
L37157 27557
" />
<path d="M37157 27242
L36842 27557
" />
<path d="M36842 29842
L37157 30157
" />
<path d="M37157 29842
L36842 30157
" />
<path d="M36842 31042
L37157 31357
" />
<path d="M37157 31042
L36842 31357
" />
<path d="M37021 45242
L37336 45557
" />
<path d="M37336 45242
L37021 45557
" />
<path d="M37342 35842
L37657 36157
" />
<path d="M37657 35842
L37342 36157
" />
<path d="M37342 36842
L37657 37157
" />
<path d="M37657 36842
L37342 37157
" />
<path d="M37826 27242
L38141 27557
" />
<path d="M38141 27242
L37826 27557
" />
<path d="M37842 24842
L38157 25157
" />
<path d="M38157 24842
L37842 25157
" />
<path d="M37842 29842
L38157 30157
" />
<path d="M38157 29842
L37842 30157
" />
<path d="M38202 47092
L38517 47407
" />
<path d="M38517 47092
L38202 47407
" />
<path d="M38342 35842
L38657 36157
" />
<path d="M38657 35842
L38342 36157
" />
<path d="M38342 36842
L38657 37157
" />
<path d="M38657 36842
L38342 37157
" />
<path d="M38842 23342
L39157 23657
" />
<path d="M39157 23342
L38842 23657
" />
<path d="M38842 24842
L39157 25157
" />
<path d="M39157 24842
L38842 25157
" />
<path d="M38842 29842
L39157 30157
" />
<path d="M39157 29842
L38842 30157
" />
<path d="M39342 35842
L39657 36157
" />
<path d="M39657 35842
L39342 36157
" />
<path d="M39342 36842
L39657 37157
" />
<path d="M39657 36842
L39342 37157
" />
<path d="M39383 45242
L39698 45557
" />
<path d="M39698 45242
L39383 45557
" />
<path d="M39842 23342
L40157 23657
" />
<path d="M40157 23342
L39842 23657
" />
<path d="M39842 24842
L40157 25157
" />
<path d="M40157 24842
L39842 25157
" />
<path d="M39842 29842
L40157 30157
" />
<path d="M40157 29842
L39842 30157
" />
<path d="M39842 31042
L40157 31357
" />
<path d="M40157 31042
L39842 31357
" />
<path d="M40842 23342
L41157 23657
" />
<path d="M41157 23342
L40842 23657
" />
<path d="M40842 24842
L41157 25157
" />
<path d="M41157 24842
L40842 25157
" />
<path d="M40842 29842
L41157 30157
" />
<path d="M41157 29842
L40842 30157
" />
<path d="M41342 35842
L41657 36157
" />
<path d="M41657 35842
L41342 36157
" />
<path d="M41342 36842
L41657 37157
" />
<path d="M41657 36842
L41342 37157
" />
<path d="M41842 23342
L42157 23657
" />
<path d="M42157 23342
L41842 23657
" />
<path d="M41842 24842
L42157 25157
" />
<path d="M42157 24842
L41842 25157
" />
<path d="M41842 29842
L42157 30157
" />
<path d="M42157 29842
L41842 30157
" />
<path d="M42342 35842
L42657 36157
" />
<path d="M42657 35842
L42342 36157
" />
<path d="M42342 36842
L42657 37157
" />
<path d="M42657 36842
L42342 37157
" />
<path d="M42842 24842
L43157 25157
" />
<path d="M43157 24842
L42842 25157
" />
<path d="M42842 29842
L43157 30157
" />
<path d="M43157 29842
L42842 30157
" />
<path d="M43342 35842
L43657 36157
" />
<path d="M43657 35842
L43342 36157
" />
<path d="M43342 36842
L43657 37157
" />
<path d="M43657 36842
L43342 37157
" />
<path d="M43842 24842
L44157 25157
" />
<path d="M44157 24842
L43842 25157
" />
<path d="M43842 29842
L44157 30157
" />
<path d="M44157 29842
L43842 30157
" />
<path d="M44842 24842
L45157 25157
" />
<path d="M45157 24842
L44842 25157
" />
<path d="M44842 27242
L45157 27557
" />
<path d="M45157 27242
L44842 27557
" />
<path d="M44842 29842
L45157 30157
" />
<path d="M45157 29842
L44842 30157
" />
<path d="M44842 31042
L45157 31357
" />
<path d="M45157 31042
L44842 31357
" />
<path d="M44842 42242
L45157 42557
" />
<path d="M45157 42242
L44842 42557
" />
<path d="M44842 44642
L45157 44957
" />
<path d="M45157 44642
L44842 44957
" />
<path d="M44842 47242
L45157 47557
" />
<path d="M45157 47242
L44842 47557
" />
<path d="M44842 48442
L45157 48757
" />
<path d="M45157 48442
L44842 48757
" />
<path d="M45826 27242
L46141 27557
" />
<path d="M46141 27242
L45826 27557
" />
<path d="M45826 44642
L46141 44957
" />
<path d="M46141 44642
L45826 44957
" />
<path d="M45842 24842
L46157 25157
" />
<path d="M46157 24842
L45842 25157
" />
<path d="M45842 29842
L46157 30157
" />
<path d="M46157 29842
L45842 30157
" />
<path d="M45842 42242
L46157 42557
" />
<path d="M46157 42242
L45842 42557
" />
<path d="M45842 47242
L46157 47557
" />
<path d="M46157 47242
L45842 47557
" />
<path d="M46842 23342
L47157 23657
" />
<path d="M47157 23342
L46842 23657
" />
<path d="M46842 24842
L47157 25157
" />
<path d="M47157 24842
L46842 25157
" />
<path d="M46842 29842
L47157 30157
" />
<path d="M47157 29842
L46842 30157
" />
<path d="M46842 40742
L47157 41057
" />
<path d="M47157 40742
L46842 41057
" />
<path d="M46842 42242
L47157 42557
" />
<path d="M47157 42242
L46842 42557
" />
<path d="M46842 47242
L47157 47557
" />
<path d="M47157 47242
L46842 47557
" />
<path d="M47842 23342
L48157 23657
" />
<path d="M48157 23342
L47842 23657
" />
<path d="M47842 24842
L48157 25157
" />
<path d="M48157 24842
L47842 25157
" />
<path d="M47842 29842
L48157 30157
" />
<path d="M48157 29842
L47842 30157
" />
<path d="M47842 31042
L48157 31357
" />
<path d="M48157 31042
L47842 31357
" />
<path d="M47842 40742
L48157 41057
" />
<path d="M48157 40742
L47842 41057
" />
<path d="M47842 42242
L48157 42557
" />
<path d="M48157 42242
L47842 42557
" />
<path d="M47842 47242
L48157 47557
" />
<path d="M48157 47242
L47842 47557
" />
<path d="M47842 48442
L48157 48757
" />
<path d="M48157 48442
L47842 48757
" />
<path d="M48842 23342
L49157 23657
" />
<path d="M49157 23342
L48842 23657
" />
<path d="M48842 24842
L49157 25157
" />
<path d="M49157 24842
L48842 25157
" />
<path d="M48842 29842
L49157 30157
" />
<path d="M49157 29842
L48842 30157
" />
<path d="M48842 40742
L49157 41057
" />
<path d="M49157 40742
L48842 41057
" />
<path d="M48842 42242
L49157 42557
" />
<path d="M49157 42242
L48842 42557
" />
<path d="M48842 47242
L49157 47557
" />
<path d="M49157 47242
L48842 47557
" />
<path d="M49842 23342
L50157 23657
" />
<path d="M50157 23342
L49842 23657
" />
<path d="M49842 24842
L50157 25157
" />
<path d="M50157 24842
L49842 25157
" />
<path d="M49842 29842
L50157 30157
" />
<path d="M50157 29842
L49842 30157
" />
<path d="M49842 40742
L50157 41057
" />
<path d="M50157 40742
L49842 41057
" />
<path d="M49842 42242
L50157 42557
" />
<path d="M50157 42242
L49842 42557
" />
<path d="M49842 47242
L50157 47557
" />
<path d="M50157 47242
L49842 47557
" />
<path d="M50842 24842
L51157 25157
" />
<path d="M51157 24842
L50842 25157
" />
<path d="M50842 29842
L51157 30157
" />
<path d="M51157 29842
L50842 30157
" />
<path d="M50842 42242
L51157 42557
" />
<path d="M51157 42242
L50842 42557
" />
<path d="M50842 47242
L51157 47557
" />
<path d="M51157 47242
L50842 47557
" />
<path d="M51842 24842
L52157 25157
" />
<path d="M52157 24842
L51842 25157
" />
<path d="M51842 29842
L52157 30157
" />
<path d="M52157 29842
L51842 30157
" />
<path d="M51842 42242
L52157 42557
" />
<path d="M52157 42242
L51842 42557
" />
<path d="M51842 47242
L52157 47557
" />
<path d="M52157 47242
L51842 47557
" />
<path d="M52842 24842
L53157 25157
" />
<path d="M53157 24842
L52842 25157
" />
<path d="M52842 27242
L53157 27557
" />
<path d="M53157 27242
L52842 27557
" />
<path d="M52842 29842
L53157 30157
" />
<path d="M53157 29842
L52842 30157
" />
<path d="M52842 31042
L53157 31357
" />
<path d="M53157 31042
L52842 31357
" />
<path d="M52842 42242
L53157 42557
" />
<path d="M53157 42242
L52842 42557
" />
<path d="M52842 44642
L53157 44957
" />
<path d="M53157 44642
L52842 44957
" />
<path d="M52842 47242
L53157 47557
" />
<path d="M53157 47242
L52842 47557
" />
<path d="M52842 48442
L53157 48757
" />
<path d="M53157 48442
L52842 48757
" />
<path d="M53826 27242
L54141 27557
" />
<path d="M54141 27242
L53826 27557
" />
<path d="M53826 44642
L54141 44957
" />
<path d="M54141 44642
L53826 44957
" />
<path d="M53842 24842
L54157 25157
" />
<path d="M54157 24842
L53842 25157
" />
<path d="M53842 29842
L54157 30157
" />
<path d="M54157 29842
L53842 30157
" />
<path d="M53842 42242
L54157 42557
" />
<path d="M54157 42242
L53842 42557
" />
<path d="M53842 47242
L54157 47557
" />
<path d="M54157 47242
L53842 47557
" />
<path d="M54842 23342
L55157 23657
" />
<path d="M55157 23342
L54842 23657
" />
<path d="M54842 24842
L55157 25157
" />
<path d="M55157 24842
L54842 25157
" />
<path d="M54842 29842
L55157 30157
" />
<path d="M55157 29842
L54842 30157
" />
<path d="M54842 40742
L55157 41057
" />
<path d="M55157 40742
L54842 41057
" />
<path d="M54842 42242
L55157 42557
" />
<path d="M55157 42242
L54842 42557
" />
<path d="M54842 47242
L55157 47557
" />
<path d="M55157 47242
L54842 47557
" />
<path d="M55842 23342
L56157 23657
" />
<path d="M56157 23342
L55842 23657
" />
<path d="M55842 24842
L56157 25157
" />
<path d="M56157 24842
L55842 25157
" />
<path d="M55842 29842
L56157 30157
" />
<path d="M56157 29842
L55842 30157
" />
<path d="M55842 31042
L56157 31357
" />
<path d="M56157 31042
L55842 31357
" />
<path d="M55842 40742
L56157 41057
" />
<path d="M56157 40742
L55842 41057
" />
<path d="M55842 42242
L56157 42557
" />
<path d="M56157 42242
L55842 42557
" />
<path d="M55842 47242
L56157 47557
" />
<path d="M56157 47242
L55842 47557
" />
<path d="M55842 48442
L56157 48757
" />
<path d="M56157 48442
L55842 48757
" />
<path d="M56842 23342
L57157 23657
" />
<path d="M57157 23342
L56842 23657
" />
<path d="M56842 24842
L57157 25157
" />
<path d="M57157 24842
L56842 25157
" />
<path d="M56842 29842
L57157 30157
" />
<path d="M57157 29842
L56842 30157
" />
<path d="M56842 40742
L57157 41057
" />
<path d="M57157 40742
L56842 41057
" />
<path d="M56842 42242
L57157 42557
" />
<path d="M57157 42242
L56842 42557
" />
<path d="M56842 47242
L57157 47557
" />
<path d="M57157 47242
L56842 47557
" />
<path d="M57842 23342
L58157 23657
" />
<path d="M58157 23342
L57842 23657
" />
<path d="M57842 24842
L58157 25157
" />
<path d="M58157 24842
L57842 25157
" />
<path d="M57842 29842
L58157 30157
" />
<path d="M58157 29842
L57842 30157
" />
<path d="M57842 40742
L58157 41057
" />
<path d="M58157 40742
L57842 41057
" />
<path d="M57842 42242
L58157 42557
" />
<path d="M58157 42242
L57842 42557
" />
<path d="M57842 47242
L58157 47557
" />
<path d="M58157 47242
L57842 47557
" />
<path d="M58842 24842
L59157 25157
" />
<path d="M59157 24842
L58842 25157
" />
<path d="M58842 29842
L59157 30157
" />
<path d="M59157 29842
L58842 30157
" />
<path d="M58842 42242
L59157 42557
" />
<path d="M59157 42242
L58842 42557
" />
<path d="M58842 47242
L59157 47557
" />
<path d="M59157 47242
L58842 47557
" />
<path d="M59842 24842
L60157 25157
" />
<path d="M60157 24842
L59842 25157
" />
<path d="M59842 29842
L60157 30157
" />
<path d="M60157 29842
L59842 30157
" />
<path d="M59842 42242
L60157 42557
" />
<path d="M60157 42242
L59842 42557
" />
<path d="M59842 47242
L60157 47557
" />
<path d="M60157 47242
L59842 47557
" />
<path d="M60842 24842
L61157 25157
" />
<path d="M61157 24842
L60842 25157
" />
<path d="M60842 27242
L61157 27557
" />
<path d="M61157 27242
L60842 27557
" />
<path d="M60842 29842
L61157 30157
" />
<path d="M61157 29842
L60842 30157
" />
<path d="M60842 31042
L61157 31357
" />
<path d="M61157 31042
L60842 31357
" />
<path d="M60842 42242
L61157 42557
" />
<path d="M61157 42242
L60842 42557
" />
<path d="M60842 44642
L61157 44957
" />
<path d="M61157 44642
L60842 44957
" />
<path d="M60842 47242
L61157 47557
" />
<path d="M61157 47242
L60842 47557
" />
<path d="M60842 48442
L61157 48757
" />
<path d="M61157 48442
L60842 48757
" />
<path d="M61826 27242
L62141 27557
" />
<path d="M62141 27242
L61826 27557
" />
<path d="M61826 44642
L62141 44957
" />
<path d="M62141 44642
L61826 44957
" />
<path d="M61842 24842
L62157 25157
" />
<path d="M62157 24842
L61842 25157
" />
<path d="M61842 29842
L62157 30157
" />
<path d="M62157 29842
L61842 30157
" />
<path d="M61842 42242
L62157 42557
" />
<path d="M62157 42242
L61842 42557
" />
<path d="M61842 47242
L62157 47557
" />
<path d="M62157 47242
L61842 47557
" />
<path d="M62842 23342
L63157 23657
" />
<path d="M63157 23342
L62842 23657
" />
<path d="M62842 24842
L63157 25157
" />
<path d="M63157 24842
L62842 25157
" />
<path d="M62842 29842
L63157 30157
" />
<path d="M63157 29842
L62842 30157
" />
<path d="M62842 40742
L63157 41057
" />
<path d="M63157 40742
L62842 41057
" />
<path d="M62842 42242
L63157 42557
" />
<path d="M63157 42242
L62842 42557
" />
<path d="M62842 47242
L63157 47557
" />
<path d="M63157 47242
L62842 47557
" />
<path d="M63842 23342
L64157 23657
" />
<path d="M64157 23342
L63842 23657
" />
<path d="M63842 24842
L64157 25157
" />
<path d="M64157 24842
L63842 25157
" />
<path d="M63842 29842
L64157 30157
" />
<path d="M64157 29842
L63842 30157
" />
<path d="M63842 31042
L64157 31357
" />
<path d="M64157 31042
L63842 31357
" />
<path d="M63842 40742
L64157 41057
" />
<path d="M64157 40742
L63842 41057
" />
<path d="M63842 42242
L64157 42557
" />
<path d="M64157 42242
L63842 42557
" />
<path d="M63842 47242
L64157 47557
" />
<path d="M64157 47242
L63842 47557
" />
<path d="M63842 48442
L64157 48757
" />
<path d="M64157 48442
L63842 48757
" />
<path d="M64842 23342
L65157 23657
" />
<path d="M65157 23342
L64842 23657
" />
<path d="M64842 24842
L65157 25157
" />
<path d="M65157 24842
L64842 25157
" />
<path d="M64842 29842
L65157 30157
" />
<path d="M65157 29842
L64842 30157
" />
<path d="M64842 40742
L65157 41057
" />
<path d="M65157 40742
L64842 41057
" />
<path d="M64842 42242
L65157 42557
" />
<path d="M65157 42242
L64842 42557
" />
<path d="M64842 47242
L65157 47557
" />
<path d="M65157 47242
L64842 47557
" />
<path d="M65842 23342
L66157 23657
" />
<path d="M66157 23342
L65842 23657
" />
<path d="M65842 24842
L66157 25157
" />
<path d="M66157 24842
L65842 25157
" />
<path d="M65842 29842
L66157 30157
" />
<path d="M66157 29842
L65842 30157
" />
<path d="M65842 40742
L66157 41057
" />
<path d="M66157 40742
L65842 41057
" />
<path d="M65842 42242
L66157 42557
" />
<path d="M66157 42242
L65842 42557
" />
<path d="M65842 47242
L66157 47557
" />
<path d="M66157 47242
L65842 47557
" />
<path d="M66842 24842
L67157 25157
" />
<path d="M67157 24842
L66842 25157
" />
<path d="M66842 29842
L67157 30157
" />
<path d="M67157 29842
L66842 30157
" />
<path d="M66842 42242
L67157 42557
" />
<path d="M67157 42242
L66842 42557
" />
<path d="M66842 47242
L67157 47557
" />
<path d="M67157 47242
L66842 47557
" />
<path d="M67842 24842
L68157 25157
" />
<path d="M68157 24842
L67842 25157
" />
<path d="M67842 29842
L68157 30157
" />
<path d="M68157 29842
L67842 30157
" />
<path d="M67842 42242
L68157 42557
" />
<path d="M68157 42242
L67842 42557
" />
<path d="M67842 47242
L68157 47557
" />
<path d="M68157 47242
L67842 47557
" />
<path d="M72842 26842
L73157 27157
" />
<path d="M73157 26842
L72842 27157
" />
<path d="M72842 27842
L73157 28157
" />
<path d="M73157 27842
L72842 28157
" />
<path d="M72842 28842
L73157 29157
" />
<path d="M73157 28842
L72842 29157
" />
<path d="M72842 29842
L73157 30157
" />
<path d="M73157 29842
L72842 30157
" />
<path d="M72842 30842
L73157 31157
" />
<path d="M73157 30842
L72842 31157
" />
<path d="M72842 31842
L73157 32157
" />
<path d="M73157 31842
L72842 32157
" />
<path d="M72842 32842
L73157 33157
" />
<path d="M73157 32842
L72842 33157
" />
<path d="M72842 33842
L73157 34157
" />
<path d="M73157 33842
L72842 34157
" />
<path d="M72842 34842
L73157 35157
" />
<path d="M73157 34842
L72842 35157
" />
<path d="M72842 35842
L73157 36157
" />
<path d="M73157 35842
L72842 36157
" />
<path d="M72842 36842
L73157 37157
" />
<path d="M73157 36842
L72842 37157
" />
<path d="M72842 37842
L73157 38157
" />
<path d="M73157 37842
L72842 38157
" />
<path d="M72842 38842
L73157 39157
" />
<path d="M73157 38842
L72842 39157
" />
<path d="M72842 39842
L73157 40157
" />
<path d="M73157 39842
L72842 40157
" />
<path d="M72842 40842
L73157 41157
" />
<path d="M73157 40842
L72842 41157
" />
<path d="M72842 41842
L73157 42157
" />
<path d="M73157 41842
L72842 42157
" />
<path d="M72842 42842
L73157 43157
" />
<path d="M73157 42842
L72842 43157
" />
<path d="M72842 43842
L73157 44157
" />
<path d="M73157 43842
L72842 44157
" />
<path d="M73842 26842
L74157 27157
" />
<path d="M74157 26842
L73842 27157
" />
<path d="M73842 27842
L74157 28157
" />
<path d="M74157 27842
L73842 28157
" />
<path d="M73842 28842
L74157 29157
" />
<path d="M74157 28842
L73842 29157
" />
<path d="M73842 29842
L74157 30157
" />
<path d="M74157 29842
L73842 30157
" />
<path d="M73842 30842
L74157 31157
" />
<path d="M74157 30842
L73842 31157
" />
<path d="M73842 31842
L74157 32157
" />
<path d="M74157 31842
L73842 32157
" />
<path d="M73842 32842
L74157 33157
" />
<path d="M74157 32842
L73842 33157
" />
<path d="M73842 33842
L74157 34157
" />
<path d="M74157 33842
L73842 34157
" />
<path d="M73842 34842
L74157 35157
" />
<path d="M74157 34842
L73842 35157
" />
<path d="M73842 35842
L74157 36157
" />
<path d="M74157 35842
L73842 36157
" />
<path d="M73842 36842
L74157 37157
" />
<path d="M74157 36842
L73842 37157
" />
<path d="M73842 37842
L74157 38157
" />
<path d="M74157 37842
L73842 38157
" />
<path d="M73842 38842
L74157 39157
" />
<path d="M74157 38842
L73842 39157
" />
<path d="M73842 39842
L74157 40157
" />
<path d="M74157 39842
L73842 40157
" />
<path d="M73842 40842
L74157 41157
" />
<path d="M74157 40842
L73842 41157
" />
<path d="M73842 41842
L74157 42157
" />
<path d="M74157 41842
L73842 42157
" />
<path d="M73842 42842
L74157 43157
" />
<path d="M74157 42842
L73842 43157
" />
<path d="M73842 43842
L74157 44157
" />
<path d="M74157 43842
L73842 44157
" />
<path d="M77342 26642
L77657 26957
" />
<path d="M77657 26642
L77342 26957
" />
<path d="M77342 28042
L77657 28357
" />
<path d="M77657 28042
L77342 28357
" />
<path d="M77342 29442
L77657 29757
" />
<path d="M77657 29442
L77342 29757
" />
<path d="M77342 30842
L77657 31157
" />
<path d="M77657 30842
L77342 31157
" />
<path d="M77342 32242
L77657 32557
" />
<path d="M77657 32242
L77342 32557
" />
<path d="M77342 33642
L77657 33957
" />
<path d="M77657 33642
L77342 33957
" />
<path d="M77342 35042
L77657 35357
" />
<path d="M77657 35042
L77342 35357
" />
<path d="M78342 26642
L78657 26957
" />
<path d="M78657 26642
L78342 26957
" />
<path d="M78342 28042
L78657 28357
" />
<path d="M78657 28042
L78342 28357
" />
<path d="M78342 29442
L78657 29757
" />
<path d="M78657 29442
L78342 29757
" />
<path d="M78342 30842
L78657 31157
" />
<path d="M78657 30842
L78342 31157
" />
<path d="M78342 32242
L78657 32557
" />
<path d="M78657 32242
L78342 32557
" />
<path d="M78342 33642
L78657 33957
" />
<path d="M78657 33642
L78342 33957
" />
<path d="M78342 35042
L78657 35357
" />
<path d="M78657 35042
L78342 35357
" />
<path d="M79342 26642
L79657 26957
" />
<path d="M79657 26642
L79342 26957
" />
<path d="M79342 28042
L79657 28357
" />
<path d="M79657 28042
L79342 28357
" />
<path d="M79342 29442
L79657 29757
" />
<path d="M79657 29442
L79342 29757
" />
<path d="M79342 30842
L79657 31157
" />
<path d="M79657 30842
L79342 31157
" />
<path d="M79342 32242
L79657 32557
" />
<path d="M79657 32242
L79342 32557
" />
<path d="M79342 33642
L79657 33957
" />
<path d="M79657 33642
L79342 33957
" />
<path d="M79342 35042
L79657 35357
" />
<path d="M79657 35042
L79342 35357
" />
<circle cx="72000" cy="45550" r="200" /> 
<circle cx="79500" cy="49400" r="200" /> 
<path d="M36000 22409
L36000 23590
" />
<path d="M35409 23000
L36590 23000
" />
<path d="M36000 54409
L36000 55590
" />
<path d="M35409 55000
L36590 55000
" />
<path d="M79000 22409
L79000 23590
" />
<path d="M78409 23000
L79590 23000
" />
<path d="M79000 54409
L79000 55590
" />
<path d="M78409 55000
L79590 55000
" />
</g>
<g style="fill:#000000; fill-opacity:0.0; 
stroke:#000000; stroke-width:118.11; stroke-opacity:1; 
stroke-linecap:round; stroke-linejoin:round;">
<path d="M34939 58463
L34939 57281
L35220 57281
L35389 57338
L35501 57450
L35557 57563
L35614 57788
L35614 57956
L35557 58181
L35501 58294
L35389 58406
L35220 58463
L34939 58463
" />
<path d="M36120 58463
L36120 57675
" />
<path d="M36120 57900
L36176 57788
L36232 57731
L36345 57675
L36457 57675
" />
<path d="M36851 58463
L36851 57675
" />
<path d="M36851 57281
L36795 57338
L36851 57394
L36907 57338
L36851 57281
L36851 57394
" />
<path d="M37582 58463
L37470 58406
L37413 58294
L37413 57281
" />
<path d="M38201 58463
L38088 58406
L38032 58294
L38032 57281
" />
<path d="M39551 58463
L39551 57281
L39944 58125
L40338 57281
L40338 58463
" />
<path d="M41407 58463
L41407 57844
L41350 57731
L41238 57675
L41013 57675
L40900 57731
" />
<path d="M41407 58406
L41294 58463
L41013 58463
L40900 58406
L40844 58294
L40844 58181
L40900 58069
L41013 58013
L41294 58013
L41407 57956
" />
<path d="M41969 57675
L41969 58856
" />
<path d="M41969 57731
L42081 57675
L42306 57675
L42419 57731
L42475 57788
L42531 57900
L42531 58238
L42475 58350
L42419 58406
L42306 58463
L42081 58463
L41969 58406
" />
<path d="M43038 58350
L43094 58406
L43038 58463
L42981 58406
L43038 58350
L43038 58463
" />
<path d="M43038 57731
L43094 57788
L43038 57844
L42981 57788
L43038 57731
L43038 57844
" />
<path d="M33555 60251
L33870 60566
" />
<path d="M33870 60251
L33555 60566
" />
<path d="M35164 59762
L35276 59762
L35389 59818
L35445 59874
L35501 59987
L35557 60212
L35557 60493
L35501 60718
L35445 60830
L35389 60887
L35276 60943
L35164 60943
L35051 60887
L34995 60830
L34939 60718
L34882 60493
L34882 60212
L34939 59987
L34995 59874
L35051 59818
L35164 59762
" />
<path d="M36063 60830
L36120 60887
L36063 60943
L36007 60887
L36063 60830
L36063 60943
" />
<path d="M36795 60268
L36682 60212
L36626 60155
L36570 60043
L36570 59987
L36626 59874
L36682 59818
L36795 59762
L37020 59762
L37132 59818
L37188 59874
L37245 59987
L37245 60043
L37188 60155
L37132 60212
L37020 60268
L36795 60268
L36682 60324
L36626 60380
L36570 60493
L36570 60718
L36626 60830
L36682 60887
L36795 60943
L37020 60943
L37132 60887
L37188 60830
L37245 60718
L37245 60493
L37188 60380
L37132 60324
L37020 60268
" />
<path d="M37976 59762
L38088 59762
L38201 59818
L38257 59874
L38313 59987
L38369 60212
L38369 60493
L38313 60718
L38257 60830
L38201 60887
L38088 60943
L37976 60943
L37863 60887
L37807 60830
L37751 60718
L37694 60493
L37694 60212
L37751 59987
L37807 59874
L37863 59818
L37976 59762
" />
<path d="M38876 60943
L38876 60155
" />
<path d="M38876 60268
L38932 60212
L39044 60155
L39213 60155
L39326 60212
L39382 60324
L39382 60943
" />
<path d="M39382 60324
L39438 60212
L39551 60155
L39719 60155
L39832 60212
L39888 60324
L39888 60943
" />
<path d="M40450 60943
L40450 60155
" />
<path d="M40450 60268
L40507 60212
L40619 60155
L40788 60155
L40900 60212
L40957 60324
L40957 60943
" />
<path d="M40957 60324
L41013 60212
L41125 60155
L41294 60155
L41407 60212
L41463 60324
L41463 60943
" />
<path d="M43769 59706
L42756 61224
" />
<path d="M45287 59762
L45400 59762
L45512 59818
L45569 59874
L45625 59987
L45681 60212
L45681 60493
L45625 60718
L45569 60830
L45512 60887
L45400 60943
L45287 60943
L45175 60887
L45119 60830
L45062 60718
L45006 60493
L45006 60212
L45062 59987
L45119 59874
L45175 59818
L45287 59762
" />
<path d="M46187 60830
L46243 60887
L46187 60943
L46131 60887
L46187 60830
L46187 60943
" />
<path d="M46975 59762
L47087 59762
L47200 59818
L47256 59874
L47312 59987
L47368 60212
L47368 60493
L47312 60718
L47256 60830
L47200 60887
L47087 60943
L46975 60943
L46862 60887
L46806 60830
L46750 60718
L46693 60493
L46693 60212
L46750 59987
L46806 59874
L46862 59818
L46975 59762
" />
<path d="M47762 59762
L48493 59762
L48099 60212
L48268 60212
L48381 60268
L48437 60324
L48493 60437
L48493 60718
L48437 60830
L48381 60887
L48268 60943
L47931 60943
L47818 60887
L47762 60830
" />
<path d="M49618 60943
L48943 60943
" />
<path d="M49281 60943
L49281 59762
L49168 59930
L49056 60043
L48943 60099
" />
<path d="M50068 59762
L50068 59987
" />
<path d="M50518 59762
L50518 59987
" />
<path d="M52261 61393
L52205 61337
L52093 61168
L52036 61055
L51980 60887
L51924 60605
L51924 60380
L51980 60099
L52036 59930
L52093 59818
L52205 59649
L52261 59593
" />
<path d="M52655 59874
L52711 59818
L52824 59762
L53105 59762
L53218 59818
L53274 59874
L53330 59987
L53330 60099
L53274 60268
L52599 60943
L53330 60943
" />
<path d="M54342 60155
L54342 60943
" />
<path d="M54061 59706
L53780 60549
L54511 60549
" />
<path d="M55186 59762
L55299 59762
L55411 59818
L55467 59874
L55524 59987
L55580 60212
L55580 60493
L55524 60718
L55467 60830
L55411 60887
L55299 60943
L55186 60943
L55074 60887
L55017 60830
L54961 60718
L54905 60493
L54905 60212
L54961 59987
L55017 59874
L55074 59818
L55186 59762
" />
<path d="M56986 60943
L56986 59762
" />
<path d="M57492 60943
L57492 60324
L57436 60212
L57323 60155
L57155 60155
L57042 60212
L56986 60268
" />
<path d="M58223 60943
L58111 60887
L58054 60830
L57998 60718
L57998 60380
L58054 60268
L58111 60212
L58223 60155
L58392 60155
L58504 60212
L58561 60268
L58617 60380
L58617 60718
L58561 60830
L58504 60887
L58392 60943
L58223 60943
" />
<path d="M59292 60943
L59179 60887
L59123 60774
L59123 59762
" />
<path d="M60192 60887
L60079 60943
L59854 60943
L59742 60887
L59685 60774
L59685 60324
L59742 60212
L59854 60155
L60079 60155
L60192 60212
L60248 60324
L60248 60437
L59685 60549
" />
<path d="M60698 60887
L60810 60943
L61035 60943
L61148 60887
L61204 60774
L61204 60718
L61148 60605
L61035 60549
L60867 60549
L60754 60493
L60698 60380
L60698 60324
L60754 60212
L60867 60155
L61035 60155
L61148 60212
" />
<path d="M61598 61393
L61654 61337
L61766 61168
L61823 61055
L61879 60887
L61935 60605
L61935 60380
L61879 60099
L61823 59930
L61766 59818
L61654 59649
L61598 59593
" />
<circle cx="33670.5" cy="61968.1" r="200" /> 
<path d="M35557 62502
L34882 62502
" />
<path d="M35220 62502
L35220 61321
L35107 61490
L34995 61602
L34882 61658
" />
<path d="M36063 62389
L36120 62446
L36063 62502
L36007 62446
L36063 62389
L36063 62502
" />
<path d="M36851 61321
L36963 61321
L37076 61377
L37132 61433
L37188 61546
L37245 61771
L37245 62052
L37188 62277
L37132 62389
L37076 62446
L36963 62502
L36851 62502
L36738 62446
L36682 62389
L36626 62277
L36570 62052
L36570 61771
L36626 61546
L36682 61433
L36738 61377
L36851 61321
" />
<path d="M37694 61433
L37751 61377
L37863 61321
L38144 61321
L38257 61377
L38313 61433
L38369 61546
L38369 61658
L38313 61827
L37638 62502
L38369 62502
" />
<path d="M38876 62502
L38876 61715
" />
<path d="M38876 61827
L38932 61771
L39044 61715
L39213 61715
L39326 61771
L39382 61883
L39382 62502
" />
<path d="M39382 61883
L39438 61771
L39551 61715
L39719 61715
L39832 61771
L39888 61883
L39888 62502
" />
<path d="M40450 62502
L40450 61715
" />
<path d="M40450 61827
L40507 61771
L40619 61715
L40788 61715
L40900 61771
L40957 61883
L40957 62502
" />
<path d="M40957 61883
L41013 61771
L41125 61715
L41294 61715
L41407 61771
L41463 61883
L41463 62502
" />
<path d="M43769 61265
L42756 62783
" />
<path d="M45287 61321
L45400 61321
L45512 61377
L45569 61433
L45625 61546
L45681 61771
L45681 62052
L45625 62277
L45569 62389
L45512 62446
L45400 62502
L45287 62502
L45175 62446
L45119 62389
L45062 62277
L45006 62052
L45006 61771
L45062 61546
L45119 61433
L45175 61377
L45287 61321
" />
<path d="M46187 62389
L46243 62446
L46187 62502
L46131 62446
L46187 62389
L46187 62502
" />
<path d="M46975 61321
L47087 61321
L47200 61377
L47256 61433
L47312 61546
L47368 61771
L47368 62052
L47312 62277
L47256 62389
L47200 62446
L47087 62502
L46975 62502
L46862 62446
L46806 62389
L46750 62277
L46693 62052
L46693 61771
L46750 61546
L46806 61433
L46862 61377
L46975 61321
" />
<path d="M48381 61715
L48381 62502
" />
<path d="M48099 61265
L47818 62108
L48549 62108
" />
<path d="M49224 61321
L49337 61321
L49449 61377
L49506 61433
L49562 61546
L49618 61771
L49618 62052
L49562 62277
L49506 62389
L49449 62446
L49337 62502
L49224 62502
L49112 62446
L49056 62389
L48999 62277
L48943 62052
L48943 61771
L48999 61546
L49056 61433
L49112 61377
L49224 61321
" />
<path d="M50068 61321
L50068 61546
" />
<path d="M50518 61321
L50518 61546
" />
<path d="M52261 62952
L52205 62896
L52093 62727
L52036 62614
L51980 62446
L51924 62164
L51924 61939
L51980 61658
L52036 61490
L52093 61377
L52205 61208
L52261 61152
" />
<path d="M52655 61433
L52711 61377
L52824 61321
L53105 61321
L53218 61377
L53274 61433
L53330 61546
L53330 61658
L53274 61827
L52599 62502
L53330 62502
" />
<path d="M54736 62502
L54736 61321
" />
<path d="M55242 62502
L55242 61883
L55186 61771
L55074 61715
L54905 61715
L54792 61771
L54736 61827
" />
<path d="M55973 62502
L55861 62446
L55805 62389
L55748 62277
L55748 61939
L55805 61827
L55861 61771
L55973 61715
L56142 61715
L56255 61771
L56311 61827
L56367 61939
L56367 62277
L56311 62389
L56255 62446
L56142 62502
L55973 62502
" />
<path d="M57042 62502
L56930 62446
L56873 62333
L56873 61321
" />
<path d="M57942 62446
L57829 62502
L57605 62502
L57492 62446
L57436 62333
L57436 61883
L57492 61771
L57605 61715
L57829 61715
L57942 61771
L57998 61883
L57998 61996
L57436 62108
" />
<path d="M58448 62446
L58561 62502
L58786 62502
L58898 62446
L58954 62333
L58954 62277
L58898 62164
L58786 62108
L58617 62108
L58504 62052
L58448 61939
L58448 61883
L58504 61771
L58617 61715
L58786 61715
L58898 61771
" />
<path d="M59348 62952
L59404 62896
L59517 62727
L59573 62614
L59629 62446
L59685 62164
L59685 61939
L59629 61658
L59573 61490
L59517 61377
L59404 61208
L59348 61152
" />
<path d="M33279 62936
L33279 64117
" />
<path d="M32689 63527
L33870 63527
" />
<path d="M34826 62880
L35557 62880
L35164 63330
L35332 63330
L35445 63386
L35501 63442
L35557 63555
L35557 63836
L35501 63948
L35445 64005
L35332 64061
L34995 64061
L34882 64005
L34826 63948
" />
<path d="M36063 63948
L36120 64005
L36063 64061
L36007 64005
L36063 63948
L36063 64061
" />
<path d="M36851 62880
L36963 62880
L37076 62936
L37132 62992
L37188 63105
L37245 63330
L37245 63611
L37188 63836
L37132 63948
L37076 64005
L36963 64061
L36851 64061
L36738 64005
L36682 63948
L36626 63836
L36570 63611
L36570 63330
L36626 63105
L36682 62992
L36738 62936
L36851 62880
" />
<path d="M37976 62880
L38088 62880
L38201 62936
L38257 62992
L38313 63105
L38369 63330
L38369 63611
L38313 63836
L38257 63948
L38201 64005
L38088 64061
L37976 64061
L37863 64005
L37807 63948
L37751 63836
L37694 63611
L37694 63330
L37751 63105
L37807 62992
L37863 62936
L37976 62880
" />
<path d="M38876 64061
L38876 63274
" />
<path d="M38876 63386
L38932 63330
L39044 63274
L39213 63274
L39326 63330
L39382 63442
L39382 64061
" />
<path d="M39382 63442
L39438 63330
L39551 63274
L39719 63274
L39832 63330
L39888 63442
L39888 64061
" />
<path d="M40450 64061
L40450 63274
" />
<path d="M40450 63386
L40507 63330
L40619 63274
L40788 63274
L40900 63330
L40957 63442
L40957 64061
" />
<path d="M40957 63442
L41013 63330
L41125 63274
L41294 63274
L41407 63330
L41463 63442
L41463 64061
" />
<path d="M43769 62824
L42756 64342
" />
<path d="M45287 62880
L45400 62880
L45512 62936
L45569 62992
L45625 63105
L45681 63330
L45681 63611
L45625 63836
L45569 63948
L45512 64005
L45400 64061
L45287 64061
L45175 64005
L45119 63948
L45062 63836
L45006 63611
L45006 63330
L45062 63105
L45119 62992
L45175 62936
L45287 62880
" />
<path d="M46187 63948
L46243 64005
L46187 64061
L46131 64005
L46187 63948
L46187 64061
" />
<path d="M47368 64061
L46693 64061
" />
<path d="M47031 64061
L47031 62880
L46918 63049
L46806 63161
L46693 63217
" />
<path d="M48493 64061
L47818 64061
" />
<path d="M48156 64061
L48156 62880
L48043 63049
L47931 63161
L47818 63217
" />
<path d="M49168 63386
L49056 63330
L48999 63274
L48943 63161
L48943 63105
L48999 62992
L49056 62936
L49168 62880
L49393 62880
L49506 62936
L49562 62992
L49618 63105
L49618 63161
L49562 63274
L49506 63330
L49393 63386
L49168 63386
L49056 63442
L48999 63499
L48943 63611
L48943 63836
L48999 63948
L49056 64005
L49168 64061
L49393 64061
L49506 64005
L49562 63948
L49618 63836
L49618 63611
L49562 63499
L49506 63442
L49393 63386
" />
<path d="M50068 62880
L50068 63105
" />
<path d="M50518 62880
L50518 63105
" />
<path d="M52261 64511
L52205 64455
L52093 64286
L52036 64173
L51980 64005
L51924 63724
L51924 63499
L51980 63217
L52036 63049
L52093 62936
L52205 62767
L52261 62711
" />
<path d="M53218 63274
L53218 64061
" />
<path d="M52936 62824
L52655 63667
L53386 63667
" />
<path d="M54736 64061
L54736 62880
" />
<path d="M55242 64061
L55242 63442
L55186 63330
L55074 63274
L54905 63274
L54792 63330
L54736 63386
" />
<path d="M55973 64061
L55861 64005
L55805 63948
L55748 63836
L55748 63499
L55805 63386
L55861 63330
L55973 63274
L56142 63274
L56255 63330
L56311 63386
L56367 63499
L56367 63836
L56311 63948
L56255 64005
L56142 64061
L55973 64061
" />
<path d="M57042 64061
L56930 64005
L56873 63892
L56873 62880
" />
<path d="M57942 64005
L57829 64061
L57605 64061
L57492 64005
L57436 63892
L57436 63442
L57492 63330
L57605 63274
L57829 63274
L57942 63330
L57998 63442
L57998 63555
L57436 63667
" />
<path d="M58448 64005
L58561 64061
L58786 64061
L58898 64005
L58954 63892
L58954 63836
L58898 63724
L58786 63667
L58617 63667
L58504 63611
L58448 63499
L58448 63442
L58504 63330
L58617 63274
L58786 63274
L58898 63330
" />
<path d="M59348 64511
L59404 64455
L59517 64286
L59573 64173
L59629 64005
L59685 63724
L59685 63499
L59629 63217
L59573 63049
L59517 62936
L59404 62767
L59348 62711
" />
</g> 
</svg>
